<svg width="179" height="18" viewBox="0 0 179 18" fill="none" xmlns="http://www.w3.org/2000/svg">
<g clip-path="url(#clip0_696_7808)">
<path fill-rule="evenodd" clip-rule="evenodd" d="M166.653 18H178.529L178.859 17.9149L178.962 17.5866V16.3597L178.841 16.0478L178.511 15.9284H168.39V12.4552H176.498L176.757 12.3343L176.862 12.0239V10.7463L176.757 10.4701L176.498 10.3493H168.39V7.23881H176.498L176.757 7.11791L176.862 6.80597V5.54478L176.757 5.24627L176.498 5.12537H168.39V2.07313H178.581L178.893 1.98657L178.998 1.64179V0.380597L178.893 0.0820896L178.617 0H166.653L166.376 0.0686567L166.254 0.346269V17.603L166.353 17.9104L166.653 18ZM126.289 0L126.029 0.120896L125.942 0.380597V17.6209L126.011 17.9194L126.289 18.0045H127.609L127.921 17.9194L128.042 17.6209V0.397015L127.952 0.120896L127.609 0H126.289ZM89.3267 0H82.3291L82.0291 0.120896L81.9076 0.380597V17.603L82.0291 17.8791L82.3291 18H83.5966L83.8966 17.8791L84.0181 17.603V2.0806H89.3267L89.6387 1.9597L89.7602 1.59702V0.380597L89.6102 0.120896L89.3267 0ZM97.2019 9.24179L96.9589 9.34627L96.8719 9.57015V10.9701L96.9589 11.2119L97.2019 11.3149H101.252V17.6209L101.355 17.9194L101.655 18.0045H102.975L103.253 17.9194L103.358 17.6209V11.3328H107.663L111.482 17.6209L111.725 17.9194L112.039 18.0045H113.948L114.157 17.9358L114.086 17.7284L110.143 11.2119L111.862 10.4L113.212 9.1209L114.112 7.4791L114.362 6.56716L114.448 5.63433L114.326 4.52836L113.98 3.45821L113.476 2.52537L112.765 1.6791L111.949 0.970149L110.993 0.447761L109.969 0.120896L108.859 0H102.752L102.452 0.0865672L102.347 0.385075V1.64179L102.452 1.9403L102.752 2.06119H108.847L109.541 2.14776L110.201 2.37313L111.295 3.16716L112.045 4.32537L112.345 5.66866L112.045 6.98209L111.35 8.10448L110.291 8.9L109.015 9.25373L97.2019 9.24179ZM136.723 7.72239L136.48 7.80896L136.377 8.05075V9.46716L136.48 9.67463L136.723 9.77761H138.963L149.71 9.7612L150.891 10.0194L151.828 10.7284L152.418 11.7119L152.626 12.8866L152.383 14.0104L151.758 14.994L150.858 15.703L149.712 15.9448H143.286V11.6612H141.22V17.6209L141.342 17.9194L141.654 18.0045H149.727L150.735 17.9194L151.654 17.6075L152.505 17.1239L153.268 16.5015L153.894 15.7418L154.363 14.8776L154.663 13.9104L154.785 12.909L154.613 11.5955L154.092 10.3702L153.258 9.29851L152.146 8.46866L152.875 7.67463L153.396 6.7791L153.726 5.79403L153.831 4.77612L153.726 3.77313L153.414 2.87761L152.98 2.06567L152.38 1.37463L151.65 0.804478L150.852 0.391045L149.967 0.0925373L149.016 0H142.905L142.605 0.0865672L142.5 0.385075V1.64179L142.605 1.9403L142.905 2.06119H148.894L150.022 2.28657L150.891 2.88358L151.48 3.7791L151.672 4.90149L151.464 5.98955L150.864 6.88508L149.977 7.48209L148.884 7.70746L136.723 7.72239ZM55.7666 18H67.2943L67.5943 17.897L67.7158 17.5866V16.3925L67.5763 16.0821L67.2763 15.9776H57.4331V12.6104H65.2978L65.5573 12.4731L65.6623 12.1955V10.9522L65.5573 10.6761L65.2978 10.5552H57.4331V7.54925H65.2978L65.5573 7.41045L65.6623 7.11194V5.90746L65.5573 5.60896L65.2978 5.48806H57.4331V2.53731H67.3333L67.6453 2.41642L67.7323 2.08955V0.880597L67.6453 0.604478L67.3678 0.51791H55.7666L55.4666 0.604478L55.3796 0.864179V17.6209L55.4486 17.897L55.7666 18ZM37.6162 15.9448H29.5506L29.2506 16.0836L29.1636 16.394V17.6373L29.2506 17.897L29.5281 18H37.6057L37.8652 17.8791L37.9882 17.5806V16.3358L37.8832 16.0597L37.6162 15.9448ZM43.6298 0.51791H42.5543L42.2933 0.622388L42.1883 0.880597L42.0848 14.6119L31.6506 0.638806L31.2681 0.431343H29.5851L29.2851 0.552239L29.1636 0.829851V14.1657L29.2506 14.4075L29.5281 14.494L35.4652 14.5104L35.7427 14.3896L35.8477 14.1134V12.8522L35.7427 12.5761L35.4832 12.4731L31.1766 12.4373V3.36866L42.0803 17.9955H43.6508L43.9809 17.8925L44.1024 17.6328L44.2209 0.895522L44.1159 0.619403L43.7514 0.514925L43.6298 0.51791ZM9.04518 0L7.22264 0.173134L5.52161 0.708955L3.99308 1.55522L2.65655 2.64328L1.54503 3.97313L0.712514 5.51045L0.190504 7.20299L0 9L0.105002 10.2791L0.348007 11.4925H2.44805L2.11804 10.2836L1.99654 9.00448L2.13604 7.58806L2.55005 6.26866L3.21006 5.07463L4.06208 4.02985L5.1211 3.18358L6.32112 2.52687L7.62315 2.11194L9.04668 1.97463L10.4702 2.11194L11.7902 2.52687L12.9903 3.18358L14.0283 4.02985L14.8968 5.07463L15.5388 6.26866L15.9558 7.58209L16.0938 8.99851L15.9558 10.4149L15.5388 11.7284L14.8968 12.9224L14.0283 13.9761L12.9873 14.8224L11.7872 15.4791L10.4672 15.8925L9.04368 16.0313L7.46414 15.8418L6.00612 15.3403L4.70409 14.5284L3.60907 13.4746H1.20002L2.62355 15.3224L4.46409 16.7567L6.63313 17.6896L7.81365 17.9313L9.04668 18L10.8707 17.8284L12.5717 17.2925L14.1003 16.4627L15.4383 15.3582L16.5633 14.0299L17.4003 12.4896L17.9223 10.8149L18.1129 9L17.9223 7.20896L17.4003 5.51045L16.5678 3.97313L15.4398 2.64328L14.1003 1.55522L12.5702 0.708955L10.8692 0.173134L9.04518 0Z" fill="black"/>
</g>
<defs>
<clipPath id="clip0_696_7808">
<rect width="179" height="18" fill="white"/>
</clipPath>
</defs>
</svg>
