<svg width="42" height="42" viewBox="0 0 42 42" fill="none" xmlns="http://www.w3.org/2000/svg">
<g clip-path="url(#clip0_698_9925)">
<path fill-rule="evenodd" clip-rule="evenodd" d="M388.858 41.9971H416.568L417.338 41.7986L417.579 41.0324V38.1697L417.296 37.4418L416.526 37.1632H392.911V29.0593H411.828L412.434 28.7772L412.679 28.0528V25.0717L412.434 24.4274L411.828 24.1453H392.911V16.8876H411.828L412.434 16.6055L412.679 15.8777V12.9349L412.434 12.2384L411.828 11.9563H392.911V4.83438H416.69L417.418 4.63239L417.663 3.82792V0.88513L417.418 0.188613L416.774 -0.00292969H388.858L388.21 0.157269L387.927 0.805031V41.0707L388.158 41.7881L388.858 41.9971ZM294.674 -0.00292969L294.069 0.27916L293.866 0.88513V41.1125L294.027 41.809L294.674 42.0075H297.754L298.482 41.809L298.766 41.1125V0.923439L298.556 0.27916L297.754 -0.00292969H294.674ZM208.429 -0.00292969H192.101L191.401 0.27916L191.118 0.88513V41.0707L191.401 41.715L192.101 41.9971H195.059L195.759 41.715L196.042 41.0707V4.8518H208.429L209.157 4.56971L209.441 3.72344V0.88513L209.091 0.27916L208.429 -0.00292969ZM226.804 21.5613L226.237 21.805L226.034 22.3274V25.5941L226.237 26.1583L226.804 26.3986H236.255V41.1125L236.496 41.809L237.196 42.0075H240.276L240.924 41.809L241.169 41.1125V26.4404H251.214L260.125 41.1125L260.692 41.809L261.424 42.0075H265.879L266.366 41.8473L266.201 41.3632L256.999 26.1583L261.011 24.2637L264.161 21.2792L266.261 17.4483L266.845 15.3205L267.045 13.1438L266.761 10.5632L265.953 8.06623L264.777 5.88961L263.118 3.91498L261.214 2.26075L258.984 1.04185L256.593 0.27916L254.003 -0.00292969H239.755L239.055 0.19906L238.81 0.895578V3.82792L239.055 4.52443L239.755 4.80652H253.975L255.596 5.00851L257.136 5.53438L259.688 7.38712L261.438 10.0896L262.138 13.2239L261.438 16.2886L259.817 18.9075L257.346 20.7637L254.367 21.5891L226.804 21.5613ZM319.021 18.016L318.454 18.218L318.212 18.7821V22.0871L318.454 22.5712L319.021 22.8115H324.246L349.324 22.7732L352.079 23.3757L354.266 25.0299L355.642 27.3249L356.128 30.0657L355.561 32.6881L354.102 34.9831L352.002 36.6374L349.328 37.2015H334.333V27.2065H329.514V41.1125L329.797 41.809L330.525 42.0075H349.363L351.715 41.809L353.86 41.0812L355.845 39.9528L357.626 38.5006L359.086 36.7279L360.181 34.7115L360.881 32.4548L361.165 30.118L360.762 27.0533L359.548 24.1941L357.602 21.6936L355.008 19.7573L356.709 17.9045L357.924 15.815L358.694 13.5165L358.939 11.1413L358.694 8.80105L357.966 6.7115L356.954 4.81697L355.554 3.20453L353.85 1.87418L351.988 0.909508L349.923 0.212991L347.704 -0.00292969H333.444L332.744 0.19906L332.499 0.895578V3.82792L332.744 4.52443L333.444 4.80652H347.42L350.052 5.33239L352.079 6.72543L353.454 8.81498L353.902 11.4339L353.416 13.9727L352.016 16.0622L349.947 17.4553L347.396 17.9812L319.021 18.016ZM130.122 41.9971H157.02L157.72 41.7568L158.004 41.0324V38.2463L157.678 37.5219L156.978 37.2782H134.011V29.4214H152.361L152.967 29.1011L153.212 28.4533V25.5523L152.967 24.908L152.361 24.6259H134.011V17.612H152.361L152.967 17.2881L153.212 16.5916V13.7812L152.967 13.0846L152.361 12.8025H134.011V5.91747H157.111L157.839 5.63538L158.042 4.87269V2.0518L157.839 1.40752L157.192 1.20553H130.122L129.422 1.40752L129.219 2.01349V41.1125L129.38 41.7568L130.122 41.9971ZM87.7712 37.2015H68.9513L68.2513 37.5254L68.0483 38.2498V41.1508L68.2513 41.7568L68.8988 41.9971H87.7467L88.3522 41.715L88.6392 41.0185V38.114L88.3942 37.4697L87.7712 37.2015ZM101.803 1.20553H99.2934L98.6844 1.44931L98.4394 2.0518L98.1979 34.0916L73.8514 1.48762L72.9589 1.00354H69.0318L68.3318 1.28563L68.0483 1.93339V33.0503L68.2513 33.6145L68.8988 33.8165L82.7521 33.8548L83.3996 33.5727L83.6446 32.9284V29.9856L83.3996 29.3414L82.7941 29.1011L72.7454 29.0175V7.85727L98.1874 41.9866H101.852L102.622 41.7463L102.905 41.1404L103.182 2.08662L102.937 1.44234L102.086 1.19856L101.803 1.20553ZM21.1054 -0.00292969L16.8528 0.40105L12.8837 1.6513L9.31718 3.62593L6.19862 6.16473L3.60507 9.26772L1.66253 12.8548L0.444509 16.804L0 20.9971L0.245005 23.9816L0.812016 26.813H5.71211L4.9421 23.9921L4.65859 21.0075L4.9841 17.7025L5.95012 14.6239L7.49015 11.8379L9.47818 9.40006L11.9492 7.42543L14.7493 5.89309L17.7873 4.92493L21.1089 4.60453L24.4305 4.92493L27.5105 5.89309L30.3106 7.42543L32.7326 9.40006L34.7592 11.8379L36.2572 14.6239L37.2302 17.6886L37.5522 20.9936L37.2302 24.2986L36.2572 27.3632L34.7592 30.1493L32.7326 32.608L30.3036 34.5826L27.5035 36.115L24.4235 37.0797L21.1019 37.4035L17.4163 36.9613L14.0143 35.7911L10.9762 33.8966L8.42116 31.4379H2.80005L6.12162 35.7493L10.4162 39.0961L15.4773 41.2727L18.2319 41.8369L21.1089 41.9971L25.365 41.5966L29.3341 40.3463L32.9006 38.41L36.0227 35.8329L38.6478 32.7334L40.6008 29.1394L41.8188 25.2319L42.2633 20.9971L41.8188 16.818L40.6008 12.8548L38.6582 9.26772L36.0262 6.16473L32.9006 3.62593L29.3306 1.6513L25.3615 0.40105L21.1054 -0.00292969Z" fill="black"/>
</g>
<defs>
<clipPath id="clip0_698_9925">
<rect width="42" height="42.0104" fill="white" transform="translate(0 -0.00292969)"/>
</clipPath>
</defs>
</svg>
